<svg xmlns="http://www.w3.org/2000/svg" version="1.1" xmlns:xlink="http://www.w3.org/1999/xlink" xmlns:svgjs="http://svgjs.dev/svgjs" width="1920" height="1080" preserveAspectRatio="none" viewBox="0 0 1920 1080"><g mask="url(&quot;#SvgjsMask1013&quot;)" fill="none"><rect width="1920" height="1080" x="0" y="0" fill="url(&quot;#SvgjsLinearGradient1014&quot;)"></rect><path d="M1984 1080L0 1080 L0 543.98Q33.81 417.79, 160 451.6Q213.03 408.63, 256 461.66Q322.08 367.74, 416 433.82Q501.19 423.01, 512 508.2Q565.66 401.86, 672 455.51Q760.59 384.1, 832 472.69Q962.41 443.1, 992 573.51Q1084.64 506.15, 1152 598.8Q1177.37 464.17, 1312 489.54Q1364.01 381.55, 1472 433.55Q1536.22 401.77, 1568 466Q1659.8 397.8, 1728 489.6Q1758.16 423.76, 1824 453.93Q1912.24 382.17, 1984 470.41z" fill="rgba(127, 128, 132, 1)"></path><path d="M2016 1080L0 1080 L0 646.7Q84.83 571.53, 160 656.36Q225.36 561.72, 320 627.07Q406.3 553.38, 480 639.68Q547.16 610.84, 576 677.99Q675.99 617.98, 736 717.96Q852.42 674.38, 896 790.81Q952.87 751.68, 992 808.55Q1016.11 736.65, 1088 760.76Q1162.69 675.45, 1248 750.15Q1294.32 636.47, 1408 682.8Q1449.47 628.26, 1504 669.73Q1567.7 637.43, 1600 701.14Q1686.19 627.33, 1760 713.52Q1793.46 586.98, 1920 620.44Q1979.38 583.82, 2016 643.19z" fill="rgba(175, 178, 183, 1)"></path><path d="M2016 1080L0 1080 L0 810.24Q115.17 765.41, 160 880.59Q193.88 754.47, 320 788.34Q409.24 717.58, 480 806.81Q567.24 734.04, 640 821.28Q758.43 779.71, 800 898.14Q883.05 885.19, 896 968.25Q918.01 830.26, 1056 852.27Q1155.45 791.72, 1216 891.18Q1226.98 806.16, 1312 817.14Q1402.18 747.33, 1472 837.51Q1527.72 733.23, 1632 788.95Q1697.48 758.43, 1728 823.91Q1847.83 847.74, 1824 967.57Q1777.86 825.43, 1920 779.29Q1995.8 759.09, 2016 834.89z" fill="rgba(215, 216, 218, 1)"></path><path d="M2048 1080L0 1080 L0 966.3Q96.05 966.35, 96 1062.39Q215.77 1022.16, 256 1141.92Q278.03 1003.95, 416 1025.99Q447.5 961.49, 512 992.98Q533.38 918.37, 608 939.75Q662.3 898.05, 704 952.34Q789.63 877.97, 864 963.59Q987.47 927.06, 1024 1050.52Q1100.33 1030.85, 1120 1107.17Q1153.53 1044.7, 1216 1078.24Q1324.9 1027.14, 1376 1136.04Q1415.47 1079.51, 1472 1118.99Q1497.05 1048.04, 1568 1073.09Q1642.62 987.7, 1728 1062.32Q1799.41 973.73, 1888 1045.14Q1936.35 933.49, 2048 981.84z" fill="rgba(243, 243, 243, 1)"></path></g><defs><mask id="SvgjsMask1013"><rect width="1920" height="1080" fill="#ffffff"></rect></mask><linearGradient x1="10.94%" y1="-19.44%" x2="89.06%" y2="119.44%" gradientUnits="userSpaceOnUse" id="SvgjsLinearGradient1014"><stop stop-color="rgba(38, 37, 38, 1)" offset="0"></stop><stop stop-color="rgba(0, 0, 0, 1)" offset="1"></stop></linearGradient></defs></svg>