<svg xmlns="http://www.w3.org/2000/svg" version="1.1" xmlns:xlink="http://www.w3.org/1999/xlink" xmlns:svgjs="http://svgjs.dev/svgjs" width="1000" height="1000" preserveAspectRatio="none" viewBox="0 0 1000 1000"><g mask="url(&quot;#SvgjsMask1655&quot;)" fill="none"><rect width="1000" height="1000" x="0" y="0" fill="url(&quot;#SvgjsLinearGradient1656&quot;)"></rect><path d="M1000.0000000000001 1000L0 1000 L0 594.43Q-29.87 514.56, 50 484.69Q54.48 405.83, 133.33333333333334 410.31Q180.19 373.83, 216.66666666666669 420.69Q262.26 416.28, 266.6666666666667 461.87Q297.08 442.28, 316.6666666666667 472.7Q324.52 430.55, 366.6666666666667 438.4Q396.13 384.53, 450 413.99Q496.7 377.35, 533.3333333333334 424.05Q593.84 401.23, 616.6666666666667 461.74Q647.72 442.79, 666.6666666666667 473.84Q718.44 475.62, 716.6666666666667 527.39Q781.89 542.62, 766.6666666666667 607.84Q733.97 525.14, 816.6666666666667 492.45Q830.9 456.68, 866.6666666666667 470.91Q891.21 412.12, 950.0000000000001 436.66Q985.55 422.21, 1000.0000000000001 457.75z" fill="rgba(127, 128, 132, 1)"></path><path d="M1066.666666666667 1000L0 1000 L0 651.92Q84.83 653.41, 83.33333333333334 738.24Q62.42 633.99, 166.66666666666669 613.08Q171.79 568.2, 216.66666666666669 573.32Q251.69 525.01, 300 560.04Q340.43 550.47, 350 590.9Q425.76 616.66, 400 692.42Q372.52 581.6, 483.33333333333337 554.12Q613.13 600.58, 566.6666666666667 730.38Q562.57 642.95, 650.0000000000001 638.86Q655.86 561.39, 733.3333333333335 567.25Q781.85 532.43, 816.6666666666669 580.95Q870.01 550.96, 900.0000000000002 604.3Q989.67 610.63, 983.3333333333336 700.3Q965.92 599.55, 1066.666666666667 582.14z" fill="rgba(175, 178, 183, 1)"></path><path d="M1050.0000000000002 1000L0 1000 L0 739.93Q86.84 743.43, 83.33333333333334 830.27Q82.55 779.49, 133.33333333333334 778.71Q140.32 702.36, 216.66666666666669 709.35Q322.44 731.79, 300 837.57Q297.47 785.04, 350 782.51Q341.32 723.83, 400 715.14Q436.48 668.28, 483.33333333333337 704.76Q560.44 698.54, 566.6666666666667 775.65Q626.93 752.58, 650.0000000000001 812.85Q668.07 780.92, 700.0000000000001 798.99Q711.61 760.6, 750.0000000000001 772.2Q780.25 719.12, 833.3333333333335 749.37Q880.96 713.66, 916.6666666666669 761.28Q979.17 773.78, 966.6666666666669 836.28Q1041.76 828.04, 1050.0000000000002 903.14z" fill="rgba(215, 216, 218, 1)"></path><path d="M1016.6666666666669 1000L0 1000 L0 1029.16Q-46.63 932.53, 50 885.89Q135.75 921.64, 100 1007.39Q66.93 890.98, 183.33333333333334 857.91Q318.14 909.38, 266.6666666666667 1044.18Q223.26 917.44, 350 874.03Q450.89 924.92, 400 1025.81Q384.4 926.87, 483.33333333333337 911.27Q518.54 863.14, 566.6666666666667 898.35Q576.42 858.11, 616.6666666666667 867.86Q633.19 834.38, 666.6666666666667 850.91Q732.69 833.6, 750.0000000000001 899.62Q760.55 860.17, 800.0000000000001 870.72Q835.74 823.12, 883.3333333333335 858.86Q924.87 850.39, 933.3333333333335 891.93Q1050.25 925.51, 1016.6666666666669 1042.42z" fill="rgba(243, 243, 243, 1)"></path></g><defs><mask id="SvgjsMask1655"><rect width="1000" height="1000" fill="#ffffff"></rect></mask><linearGradient x1="0%" y1="0%" x2="100%" y2="100%" gradientUnits="userSpaceOnUse" id="SvgjsLinearGradient1656"><stop stop-color="rgba(38, 37, 38, 1)" offset="0"></stop><stop stop-color="rgba(0, 0, 0, 1)" offset="1"></stop></linearGradient></defs></svg>