<svg xmlns="http://www.w3.org/2000/svg" version="1.1" xmlns:xlink="http://www.w3.org/1999/xlink" xmlns:svgjs="http://svgjs.dev/svgjs" width="300" height="300" preserveAspectRatio="none" viewBox="0 0 300 300"><g mask="url(&quot;#SvgjsMask1191&quot;)" fill="none"><rect width="300" height="300" x="0" y="0" fill="rgba(0, 0, 0, 1)"></rect><use xlink:href="#SvgjsPath1192" x="30" y="30" stroke="rgba(177, 41, 53, 1)"></use><use xlink:href="#SvgjsPath1193" x="30" y="90" stroke="rgba(255, 255, 255, 1)"></use><use xlink:href="#SvgjsPath1193" x="30" y="150" stroke="rgba(255, 255, 255, 1)"></use><use xlink:href="#SvgjsPath1194" x="30" y="210" stroke="rgba(177, 41, 53, 1)"></use><use xlink:href="#SvgjsPath1194" x="30" y="270" stroke="rgba(255, 255, 255, 1)"></use><use xlink:href="#SvgjsPath1193" x="90" y="30" stroke="rgba(177, 41, 53, 1)"></use><use xlink:href="#SvgjsPath1192" x="90" y="90" stroke="rgba(255, 255, 255, 1)"></use><use xlink:href="#SvgjsPath1195" x="90" y="150" stroke="rgba(255, 255, 255, 1)"></use><use xlink:href="#SvgjsPath1196" x="90" y="210" stroke="rgba(255, 255, 255, 1)"></use><use xlink:href="#SvgjsPath1193" x="90" y="270" stroke="rgba(255, 255, 255, 1)"></use><use xlink:href="#SvgjsPath1194" x="150" y="30" stroke="rgba(255, 255, 255, 1)"></use><use xlink:href="#SvgjsPath1192" x="150" y="90" stroke="rgba(177, 41, 53, 1)"></use><use xlink:href="#SvgjsPath1192" x="150" y="150" stroke="rgba(255, 255, 255, 1)"></use><use xlink:href="#SvgjsPath1194" x="150" y="210" stroke="rgba(177, 41, 53, 1)"></use><use xlink:href="#SvgjsPath1192" x="150" y="270" stroke="rgba(177, 41, 53, 1)"></use><use xlink:href="#SvgjsPath1192" x="210" y="30" stroke="rgba(177, 41, 53, 1)"></use><use xlink:href="#SvgjsPath1194" x="210" y="90" stroke="rgba(255, 255, 255, 1)"></use><use xlink:href="#SvgjsPath1197" x="210" y="150" stroke="rgba(255, 255, 255, 1)" stroke-width="3"></use><use xlink:href="#SvgjsPath1193" x="210" y="210" stroke="rgba(177, 41, 53, 1)"></use><use xlink:href="#SvgjsPath1194" x="210" y="270" stroke="rgba(255, 255, 255, 1)"></use><use xlink:href="#SvgjsPath1195" x="270" y="30" stroke="rgba(177, 41, 53, 1)"></use><use xlink:href="#SvgjsPath1192" x="270" y="90" stroke="rgba(255, 255, 255, 1)"></use><use xlink:href="#SvgjsPath1195" x="270" y="150" stroke="rgba(177, 41, 53, 1)"></use><use xlink:href="#SvgjsPath1193" x="270" y="210" stroke="rgba(177, 41, 53, 1)"></use><use xlink:href="#SvgjsPath1193" x="270" y="270" stroke="rgba(177, 41, 53, 1)"></use></g><defs><mask id="SvgjsMask1191"><rect width="300" height="300" fill="#ffffff"></rect></mask><path d="M-1 0 a1 1 0 1 0 2 0 a1 1 0 1 0 -2 0z" id="SvgjsPath1196"></path><path d="M-3 0 a3 3 0 1 0 6 0 a3 3 0 1 0 -6 0z" id="SvgjsPath1195"></path><path d="M-5 0 a5 5 0 1 0 10 0 a5 5 0 1 0 -10 0z" id="SvgjsPath1192"></path><path d="M2 -2 L-2 2z" id="SvgjsPath1193"></path><path d="M6 -6 L-6 6z" id="SvgjsPath1194"></path><path d="M30 -30 L-30 30z" id="SvgjsPath1197"></path></defs></svg>