<svg xmlns="http://www.w3.org/2000/svg" version="1.1" xmlns:xlink="http://www.w3.org/1999/xlink" xmlns:svgjs="http://svgjs.dev/svgjs" width="1000" height="1000" preserveAspectRatio="none" viewBox="0 0 1000 1000"><g mask="url(&quot;#SvgjsMask1075&quot;)" fill="none"><rect width="1000" height="1000" x="0" y="0" fill="rgba(0, 0, 0, 1)"></rect><path d="M 0,64 C 66.8,101.4 200.4,256.4 334,251 C 467.6,245.6 534.8,32.8 668,37 C 801.2,41.2 933.6,225 1000,272L1000 1000L0 1000z" fill="rgba(0, 0, 0, 1)"></path><path d="M 0,665 C 40,613.8 120,415.4 200,409 C 280,402.6 320,619.8 400,633 C 480,646.2 520,486.2 600,475 C 680,463.8 720,592.6 800,577 C 880,561.4 960,433 1000,397L1000 1000L0 1000z" fill="rgba(121, 123, 126, 1)"></path><path d="M 0,735 C 50,779.4 150,953.4 250,957 C 350,960.6 400,761.2 500,753 C 600,744.8 650,906.8 750,916 C 850,925.2 950,822.4 1000,799L1000 1000L0 1000z" fill="rgba(255, 255, 255, 1)"></path></g><defs><mask id="SvgjsMask1075"><rect width="1000" height="1000" fill="#ffffff"></rect></mask></defs></svg>