<svg xmlns="http://www.w3.org/2000/svg" version="1.1" xmlns:xlink="http://www.w3.org/1999/xlink" xmlns:svgjs="http://svgjs.dev/svgjs" width="1440" height="560" preserveAspectRatio="none" viewBox="0 0 1440 560"><g mask="url(&quot;#SvgjsMask1099&quot;)" fill="none"><rect width="1440" height="560" x="0" y="0" fill="rgba(0, 0, 0, 1)"></rect><path d="M -545.4984407354514,221 C -401.5,253 -113.5,372.6 174.50155926454863,381 C 462.5,389.4 606.5,280.8 894.5015592645486,263 C 1182.5,245.2 1505.4,304.8 1614.5015592645486,292 C 1723.6,279.2 1474.9,217.6 1440,199" stroke="rgba(255, 255, 255, 1)" stroke-width="2"></path><path d="M -704.0655917415799,174 C -560.07,198.6 -272.07,285 15.93440825842018,297 C 303.93,309 447.93,232.8 735.9344082584201,234 C 1023.93,235.2 1315.12,306.4 1455.9344082584203,303 C 1596.75,299.6 1443.19,234.2 1440,217" stroke="rgba(255, 255, 255, 1)" stroke-width="2"></path><path d="M -1251.429138338574,242 C -1107.43,257.2 -819.43,337.4 -531.429138338574,318 C -243.43,298.6 -99.43,134.6 188.57086166142597,145 C 476.57,155.4 658.29,357.8 908.570861661426,370 C 1158.86,382.2 1333.71,238.8 1440,206" stroke="rgba(255, 255, 255, 1)" stroke-width="2"></path></g><defs><mask id="SvgjsMask1099"><rect width="1440" height="560" fill="#ffffff"></rect></mask></defs></svg>